REM MD5 6ff32af95e5e88f7726768d5b9dffe57
FILE "Vib-Ribbon (Japan) (Demo).bin" BINARY
  TRACK 01 MODE2/2352
    INDEX 01 00:00:00
  TRACK 02 AUDIO
    INDEX 00 00:27:39
    INDEX 01 00:29:39
  TRACK 03 AUDIO
    INDEX 00 01:24:24
    INDEX 01 01:26:24
  TRACK 04 AUDIO
    INDEX 00 02:23:63
    INDEX 01 02:25:63
REM LEADOUT 05:26:54
